<?xml version='1.0' encoding='UTF-8'?>
<svg width="45mm" height="45mm" version="1.1" xmlns="http://www.w3.org/2000/svg"><svg:rect xmlns:svg="http://www.w3.org/2000/svg" x="4mm" y="4mm" width="1mm" height="1mm"/><svg:rect xmlns:svg="http://www.w3.org/2000/svg" x="5mm" y="4mm" width="1mm" height="1mm"/><svg:rect xmlns:svg="http://www.w3.org/2000/svg" x="6mm" y="4mm" width="1mm" height="1mm"/><svg:rect xmlns:svg="http://www.w3.org/2000/svg" x="7mm" y="4mm" width="1mm" height="1mm"/><svg:rect xmlns:svg="http://www.w3.org/2000/svg" x="8mm" y="4mm" width="1mm" height="1mm"/><svg:rect xmlns:svg="http://www.w3.org/2000/svg" x="9mm" y="4mm" width="1mm" height="1mm"/><svg:rect xmlns:svg="http://www.w3.org/2000/svg" x="10mm" y="4mm" width="1mm" height="1mm"/><svg:rect xmlns:svg="http://www.w3.org/2000/svg" x="12mm" y="4mm" width="1mm" height="1mm"/><svg:rect xmlns:svg="http://www.w3.org/2000/svg" x="14mm" y="4mm" width="1mm" height="1mm"/><svg:rect xmlns:svg="http://www.w3.org/2000/svg" x="16mm" y="4mm" width="1mm" height="1mm"/><svg:rect xmlns:svg="http://www.w3.org/2000/svg" x="20mm" y="4mm" width="1mm" height="1mm"/><svg:rect xmlns:svg="http://www.w3.org/2000/svg" x="22mm" y="4mm" width="1mm" height="1mm"/><svg:rect xmlns:svg="http://www.w3.org/2000/svg" x="23mm" y="4mm" width="1mm" height="1mm"/><svg:rect xmlns:svg="http://www.w3.org/2000/svg" x="25mm" y="4mm" width="1mm" height="1mm"/><svg:rect xmlns:svg="http://www.w3.org/2000/svg" x="26mm" y="4mm" width="1mm" height="1mm"/><svg:rect xmlns:svg="http://www.w3.org/2000/svg" x="27mm" y="4mm" width="1mm" height="1mm"/><svg:rect xmlns:svg="http://www.w3.org/2000/svg" x="28mm" y="4mm" width="1mm" height="1mm"/><svg:rect xmlns:svg="http://www.w3.org/2000/svg" x="34mm" y="4mm" width="1mm" height="1mm"/><svg:rect xmlns:svg="http://www.w3.org/2000/svg" x="35mm" y="4mm" width="1mm" height="1mm"/><svg:rect xmlns:svg="http://www.w3.org/2000/svg" x="36mm" y="4mm" width="1mm" height="1mm"/><svg:rect xmlns:svg="http://www.w3.org/2000/svg" x="37mm" y="4mm" width="1mm" height="1mm"/><svg:rect xmlns:svg="http://www.w3.org/2000/svg" x="38mm" y="4mm" width="1mm" height="1mm"/><svg:rect xmlns:svg="http://www.w3.org/2000/svg" x="39mm" y="4mm" width="1mm" height="1mm"/><svg:rect xmlns:svg="http://www.w3.org/2000/svg" x="40mm" y="4mm" width="1mm" height="1mm"/><svg:rect xmlns:svg="http://www.w3.org/2000/svg" x="4mm" y="40mm" width="1mm" height="1mm"/><svg:rect xmlns:svg="http://www.w3.org/2000/svg" x="5mm" y="40mm" width="1mm" height="1mm"/><svg:rect xmlns:svg="http://www.w3.org/2000/svg" x="6mm" y="40mm" width="1mm" height="1mm"/><svg:rect xmlns:svg="http://www.w3.org/2000/svg" x="7mm" y="40mm" width="1mm" height="1mm"/><svg:rect xmlns:svg="http://www.w3.org/2000/svg" x="8mm" y="40mm" width="1mm" height="1mm"/><svg:rect xmlns:svg="http://www.w3.org/2000/svg" x="9mm" y="40mm" width="1mm" height="1mm"/><svg:rect xmlns:svg="http://www.w3.org/2000/svg" x="10mm" y="40mm" width="1mm" height="1mm"/><svg:rect xmlns:svg="http://www.w3.org/2000/svg" x="40mm" y="40mm" width="1mm" height="1mm"/></svg>